<svg xmlns="http://www.w3.org/2000/svg" width="136.32mm" height="110.63mm" viewBox="0 0 386.41 313.59"><path d="M270.12,168.73l-75,126.12a19.83,19.83,0,0,1-15.85,7.9h-67.4A19.75,19.75,0,0,0,125.67,295l18.85-31.68,56.2-94.44a19.83,19.83,0,0,0,0-23.88l-56.2-94.48L125.67,18.79a19.83,19.83,0,0,0-15.84-7.9l34.69-.05,10.48,0,24.23,0a19.86,19.86,0,0,1,15.85,7.9l8.19,13.76,66.86,112.41A19.85,19.85,0,0,1,270.12,168.73Z" fill="#fff"/><path d="M179.23,10.78a20,20,0,0,0-15.86,8L88.32,145a19.85,19.85,0,0,0,0,23.88L163.37,295a19.75,19.75,0,0,0,13.84,7.79h-67.4A19.83,19.83,0,0,1,94,294.85l-75-126.12a19.87,19.87,0,0,1,0-23.88L94,18.68a19.86,19.86,0,0,1,15.85-7.9Z" fill="#fff"/><path d="M372.12,168.73l-75,126.12a19.83,19.83,0,0,1-15.85,7.9h-67.4A19.75,19.75,0,0,0,227.67,295l18.85-31.68,56.2-94.44a19.83,19.83,0,0,0,0-23.88l-56.2-94.48L227.67,18.79a19.83,19.83,0,0,0-15.84-7.9l34.69-.05,10.48,0,24.23,0a19.86,19.86,0,0,1,15.85,7.9l8.19,13.76,66.86,112.41A19.85,19.85,0,0,1,372.12,168.73Z" fill="#fff"/><path d="M281.23,10.78a20,20,0,0,0-15.86,8L190.32,145a19.85,19.85,0,0,0,0,23.88L265.37,295a19.75,19.75,0,0,0,13.84,7.79h-67.4a19.83,19.83,0,0,1-15.85-7.9l-75-126.12a19.87,19.87,0,0,1,0-23.88L196,18.68a19.86,19.86,0,0,1,15.85-7.9Z" fill="#fff"/></svg>