<svg xmlns="http://www.w3.org/2000/svg" width="1200" height="630" viewBox="0 0 1200 630">
  <!-- Gradient Background (Kroescontrol official: Deep Navy Blue → Crimson Magenta) -->
  <defs>
    <linearGradient id="bgGradient" x1="0%" y1="0%" x2="100%" y2="100%">
      <stop offset="0%" style="stop-color:#222b5b;stop-opacity:1" />
      <stop offset="100%" style="stop-color:#c22757;stop-opacity:1" />
    </linearGradient>

    <!-- Dot pattern overlay -->
    <pattern id="dotPattern" x="0" y="0" width="40" height="40" patternUnits="userSpaceOnUse">
      <circle cx="2" cy="2" r="1" fill="white" opacity="0.1"/>
    </pattern>
  </defs>

  <!-- Background -->
  <rect width="1200" height="630" fill="url(#bgGradient)"/>

  <!-- Pattern overlay -->
  <rect width="1200" height="630" fill="url(#dotPattern)"/>

  <!-- Beeldmerk (centered, scaled to ~300px width) -->
  <g transform="translate(410, 180) scale(0.78)">
    <path d="M270.12,168.73l-75,126.12a19.83,19.83,0,0,1-15.85,7.9h-67.4A19.75,19.75,0,0,0,125.67,295l18.85-31.68,56.2-94.44a19.83,19.83,0,0,0,0-23.88l-56.2-94.48L125.67,18.79a19.83,19.83,0,0,0-15.84-7.9l34.69-.05,10.48,0,24.23,0a19.86,19.86,0,0,1,15.85,7.9l8.19,13.76,66.86,112.41A19.85,19.85,0,0,1,270.12,168.73Z" fill="#fff"/>
    <path d="M179.23,10.78a20,20,0,0,0-15.86,8L88.32,145a19.85,19.85,0,0,0,0,23.88L163.37,295a19.75,19.75,0,0,0,13.84,7.79h-67.4A19.83,19.83,0,0,1,94,294.85l-75-126.12a19.87,19.87,0,0,1,0-23.88L94,18.68a19.86,19.86,0,0,1,15.85-7.9Z" fill="#fff"/>
    <path d="M372.12,168.73l-75,126.12a19.83,19.83,0,0,1-15.85,7.9h-67.4A19.75,19.75,0,0,0,227.67,295l18.85-31.68,56.2-94.44a19.83,19.83,0,0,0,0-23.88l-56.2-94.48L227.67,18.79a19.83,19.83,0,0,0-15.84-7.9l34.69-.05,10.48,0,24.23,0a19.86,19.86,0,0,1,15.85,7.9l8.19,13.76,66.86,112.41A19.85,19.85,0,0,1,372.12,168.73Z" fill="#fff"/>
    <path d="M281.23,10.78a20,20,0,0,0-15.86,8L190.32,145a19.85,19.85,0,0,0,0,23.88L265.37,295a19.75,19.75,0,0,0,13.84,7.79h-67.4a19.83,19.83,0,0,1-15.85-7.9l-75-126.12a19.87,19.87,0,0,1,0-23.88L196,18.68a19.86,19.86,0,0,1,15.85-7.9Z" fill="#fff"/>
  </g>

  <!-- Text -->
  <text x="600" y="480" font-family="system-ui, -apple-system, sans-serif" font-size="52" font-weight="700" fill="white" text-anchor="middle" style="text-shadow: 0 4px 12px rgba(0,0,0,0.3)">
    Kroescontrol
  </text>
  <text x="600" y="530" font-family="system-ui, -apple-system, sans-serif" font-size="28" fill="rgba(255,255,255,0.9)" text-anchor="middle">
    Publieke Documentatie
  </text>
</svg>
