<svg xmlns="http://www.w3.org/2000/svg" xmlns:xlink="http://www.w3.org/1999/xlink" width="672.52mm" height="210mm" viewBox="0 0 1906.35 595.28"><defs><linearGradient id="a" x1="257.08" y1="270.87" x2="302.81" y2="356.89" gradientUnits="userSpaceOnUse"><stop offset="0" stop-color="#bf2251"/><stop offset="1" stop-color="#252a57"/></linearGradient><linearGradient id="b" x1="296.95" y1="151.44" x2="296.95" y2="177.47" gradientUnits="userSpaceOnUse"><stop offset="0.13" stop-color="#151d34" stop-opacity="0.7"/><stop offset="0.18" stop-color="#381e3a" stop-opacity="0.72"/><stop offset="0.26" stop-color="#6a1f42" stop-opacity="0.75"/><stop offset="0.34" stop-color="#912048" stop-opacity="0.77"/><stop offset="0.42" stop-color="#ad204c" stop-opacity="0.79"/><stop offset="0.49" stop-color="#be214f" stop-opacity="0.8"/><stop offset="0.55" stop-color="#c42150" stop-opacity="0.8"/></linearGradient><linearGradient id="c" x1="228.18" y1="337.13" x2="281.1" y2="237.61" gradientUnits="userSpaceOnUse"><stop offset="0" stop-color="#c42150"/><stop offset="1" stop-color="#252a57"/></linearGradient><linearGradient id="d" x1="359.08" y1="270.87" x2="404.81" y2="356.89" gradientUnits="userSpaceOnUse"><stop offset="0" stop-color="#c42150"/><stop offset="1" stop-color="#302a57"/></linearGradient><linearGradient id="e" x1="398.95" y1="151.44" x2="398.95" y2="177.47" xlink:href="#b"/><linearGradient id="f" x1="330.18" y1="337.13" x2="383.1" y2="237.61" xlink:href="#c"/></defs><path d="M385.84,309.4l-75,126.12a19.83,19.83,0,0,1-15.85,7.9h-67.4a19.75,19.75,0,0,0,13.84-7.79L260.24,404l56.2-94.44a19.83,19.83,0,0,0,0-23.88l-56.2-94.48-18.85-31.69a19.83,19.83,0,0,0-15.84-7.9l34.69-.05,10.48,0,24.23,0a19.86,19.86,0,0,1,15.85,7.9L319,173.11l66.86,112.41A19.85,19.85,0,0,1,385.84,309.4Z" fill="url(#a)"/><path d="M321.56,177.47c-1.36-2.16-10.49-8.78-20.87-8.9l-28.34.42,3.74-9.54c3.74-5,12.63-8,18.86-8a19.86,19.86,0,0,1,15.85,7.9Z" fill="url(#b)"/><path d="M295,151.45a20,20,0,0,0-15.86,8L204,285.63a19.85,19.85,0,0,0,0,23.88l75,126.12a19.75,19.75,0,0,0,13.84,7.79h-67.4a19.83,19.83,0,0,1-15.85-7.9l-75-126.12a19.87,19.87,0,0,1,0-23.88l75.05-126.17a19.86,19.86,0,0,1,15.85-7.9Z" fill="url(#c)"/><path d="M487.84,309.4l-75,126.12a19.83,19.83,0,0,1-15.85,7.9h-67.4a19.75,19.75,0,0,0,13.84-7.79L362.24,404l56.2-94.44a19.83,19.83,0,0,0,0-23.88l-56.2-94.48-18.85-31.69a19.83,19.83,0,0,0-15.84-7.9l34.69-.05,10.48,0,24.23,0a19.86,19.86,0,0,1,15.85,7.9L421,173.11l66.86,112.41A19.85,19.85,0,0,1,487.84,309.4Z" fill="url(#d)"/><path d="M423.56,177.47c-1.36-2.16-10.49-8.78-20.87-8.9l-28.34.42,2.74-9.54c3.74-5,13.63-8,19.86-8a19.86,19.86,0,0,1,15.85,7.9Z" fill="url(#e)"/><path d="M397,151.45a20,20,0,0,0-15.86,8L306,285.63a19.85,19.85,0,0,0,0,23.88l75,126.12a19.75,19.75,0,0,0,13.84,7.79h-67.4a19.83,19.83,0,0,1-15.85-7.9l-75-126.12a19.87,19.87,0,0,1,0-23.88l75.05-126.17a19.86,19.86,0,0,1,15.85-7.9Z" fill="url(#f)"/><path d="M606.07,318.09l44.17,54h-32L579.4,323.64v48.44H551.88V222.72H579.4v89.61l36.7-46.94H649Z" fill="#252a57"/><path d="M691.42,265.39v18.35a28.4,28.4,0,0,1,12.38-15.25,38.26,38.26,0,0,1,20.05-5.23V294a31.28,31.28,0,0,0-22.61,5.12q-9.82,6.61-9.82,22v51H663.9V265.39Z" fill="#252a57"/><path d="M826.69,358.85q-16.22,16.22-40.11,16.21t-40.11-16.21q-16.22-16.22-16.22-40.11,0-23.69,16.22-39.9,16.42-16.44,40.11-16.43t40.11,16.43q16.44,16.43,16.43,39.9Q843.12,342.41,826.69,358.85Zm-60.81-19a29.91,29.91,0,0,0,41.4,0q8.31-8.33,8.32-21.12t-8.32-21.13a29.91,29.91,0,0,0-41.4,0q-8.1,8.53-8.1,21.13T765.88,339.86Z" fill="#252a57"/><path d="M966.24,330H885.8q5.33,20.07,30.08,20.06,15.78,0,23.9-10.67L962,352.23q-15.79,22.84-46.52,22.83-26.46,0-42.46-16t-16-40.32q0-23.89,15.79-40.12,15.57-16.22,40.54-16.21,23.68,0,38.62,16.21,15.36,16.22,15.36,40.12A77.23,77.23,0,0,1,966.24,330Zm-80.87-21.33h54.41q-2.35-10.45-9.5-16a26.85,26.85,0,0,0-17-5.55q-11.1,0-18.35,5.65T885.37,308.71Z" fill="#252a57"/><path d="M1007.63,295.69q0,6.84,19.41,11.74a94.9,94.9,0,0,1,12.38,3.52,54,54,0,0,1,11.2,5.76,26.05,26.05,0,0,1,8.86,9.92,30.75,30.75,0,0,1,3.2,14.3q0,16.43-12.38,25.39-12.37,8.74-30.51,8.74-32.87,0-44.81-25.39l23.9-13.44q4.9,13.88,20.91,13.87,14.73,0,14.72-9.17,0-6.84-19.41-11.74-7.26-1.92-12.38-3.84a62.92,62.92,0,0,1-11.09-5.65,24.84,24.84,0,0,1-9.07-9.61,29.1,29.1,0,0,1-3.1-13.76q0-15.78,11.53-24.75,11.73-9.16,29-9.17a48.37,48.37,0,0,1,23.69,5.86A42.93,42.93,0,0,1,1060.54,285l-23.47,12.81Q1032,286.94,1020,286.94a15.1,15.1,0,0,0-8.85,2.46A7.39,7.39,0,0,0,1007.63,295.69Z" fill="#252a57"/><path d="M1129.68,375.06q-24.12,0-40.33-16.21-16-16.22-16-40.11t16-40.12q16.22-16.22,40.33-16.21a55.34,55.34,0,0,1,28.37,7.46,49.73,49.73,0,0,1,19.42,20.06l-23.68,13.87a24.19,24.19,0,0,0-9.71-10.46,28.22,28.22,0,0,0-14.62-3.84q-12.37,0-20.48,8.22t-8.11,21a29.2,29.2,0,0,0,8.11,20.91q8.12,8.1,20.48,8.1a29.25,29.25,0,0,0,14.83-3.73,23.5,23.5,0,0,0,9.71-10.35l23.9,13.66a52.15,52.15,0,0,1-20,20.27A55.55,55.55,0,0,1,1129.68,375.06Z" fill="#252a57"/><path d="M1281.59,358.85q-16.21,16.22-40.11,16.21t-40.11-16.21q-16.21-16.22-16.22-40.11,0-23.69,16.22-39.9,16.43-16.44,40.11-16.43t40.11,16.43q16.44,16.43,16.43,39.9Q1298,342.41,1281.59,358.85Zm-60.81-19a29.91,29.91,0,0,0,41.4,0q8.33-8.33,8.32-21.12t-8.32-21.13a29.91,29.91,0,0,0-41.4,0q-8.1,8.53-8.1,21.13T1220.78,339.86Z" fill="#252a57"/><path d="M1376.75,262.41q17.71,0,28.81,11.73,11.52,12,11.52,32.43v65.51h-27.52V310q0-10.46-5.66-16.22T1368.43,288q-10.87,0-17.17,6.72t-6.3,19.74v57.61h-27.52V265.39H1345v11.95Q1354.77,262.41,1376.75,262.41Z" fill="#252a57"/><path d="M1550.22,265.39v18.35a28.4,28.4,0,0,1,12.38-15.25,38.26,38.26,0,0,1,20.05-5.23V294a31.32,31.32,0,0,0-22.62,5.12q-9.81,6.61-9.81,22v51H1522.7V265.39Z" fill="#252a57"/><path d="M1685.49,358.85q-16.21,16.22-40.11,16.21t-40.11-16.21q-16.23-16.22-16.22-40.11,0-23.69,16.22-39.9,16.43-16.44,40.11-16.43t40.11,16.43q16.42,16.43,16.43,39.9Q1701.92,342.41,1685.49,358.85Zm-60.81-19a29.91,29.91,0,0,0,41.4,0q8.31-8.33,8.32-21.12t-8.32-21.13a29.91,29.91,0,0,0-41.4,0q-8.12,8.53-8.11,21.13T1624.68,339.86Z" fill="#252a57"/><path d="M1748.86,372.08h-27.52V216.32h27.52Z" fill="#252a57"/><path d="M1477.53,291.91v44.38q0,5.55,2.78,8.11c1.84,1.71,4.55,2.67,8.1,2.88a119.07,119.07,0,0,0,13.23-.11v25q-27.95,3.19-39.79-5.23T1450,336.29V291.91h-18.56V265.45H1450V243.9a19.93,19.93,0,0,1,27.51-8.32h0v29.87h24.11v26.46Z" fill="#252a57"/></svg>