<svg xmlns="http://www.w3.org/2000/svg" xmlns:xlink="http://www.w3.org/1999/xlink" width="672.52mm" height="210mm" viewBox="0 0 1906.35 595.28"><defs><linearGradient id="a" x1="257.08" y1="270.87" x2="302.81" y2="356.89" gradientUnits="userSpaceOnUse"><stop offset="0" stop-color="#fff"/><stop offset="0.13" stop-color="#e5e5e5"/><stop offset="0.55" stop-color="#999998"/><stop offset="0.85" stop-color="#696968"/><stop offset="1" stop-color="#575756"/></linearGradient><linearGradient id="b" x1="296.95" y1="151.44" x2="296.95" y2="177.47" gradientUnits="userSpaceOnUse"><stop offset="0.13" stop-color="#2e2d2c" stop-opacity="0.9"/><stop offset="0.26" stop-color="#424140" stop-opacity="0.82"/><stop offset="0.39" stop-color="#7d7d7c" stop-opacity="0.56"/><stop offset="0.52" stop-color="#e0e0e0" stop-opacity="0.13"/><stop offset="0.55" stop-color="#fff" stop-opacity="0"/></linearGradient><linearGradient id="c" x1="228.18" y1="337.13" x2="281.1" y2="237.61" gradientUnits="userSpaceOnUse"><stop offset="0" stop-color="#fff"/><stop offset="0.03" stop-color="#fafafa"/><stop offset="0.5" stop-color="#aeaead"/><stop offset="0.83" stop-color="#7e7e7d"/><stop offset="1" stop-color="#6c6c6b"/></linearGradient><linearGradient id="d" x1="359.08" y1="270.87" x2="404.81" y2="356.89" xlink:href="#a"/><linearGradient id="e" x1="398.95" y1="151.44" x2="398.95" y2="177.47" gradientUnits="userSpaceOnUse"><stop offset="0.13" stop-color="#2e2d2c" stop-opacity="0.9"/><stop offset="0.26" stop-color="#434241" stop-opacity="0.81"/><stop offset="0.39" stop-color="#828181" stop-opacity="0.54"/><stop offset="0.53" stop-color="#eaeaea" stop-opacity="0.09"/><stop offset="0.55" stop-color="#fff" stop-opacity="0"/></linearGradient><linearGradient id="f" x1="330.18" y1="337.13" x2="383.1" y2="237.61" xlink:href="#a"/></defs><path d="M385.84,309.4l-75,126.12a19.83,19.83,0,0,1-15.85,7.9h-67.4a19.75,19.75,0,0,0,13.84-7.79L260.24,404l56.2-94.44a19.83,19.83,0,0,0,0-23.88l-56.2-94.48-18.85-31.69a19.83,19.83,0,0,0-15.84-7.9l34.69-.05,10.48,0,24.23,0a19.86,19.86,0,0,1,15.85,7.9L319,173.11l66.86,112.41A19.85,19.85,0,0,1,385.84,309.4Z" fill="url(#a)"/><path d="M321.56,177.47c-1.36-2.16-10.49-8.78-20.87-8.9l-28.34.42,4.74-9.54c3.74-5,11.63-8,17.86-8a19.86,19.86,0,0,1,15.85,7.9Z" fill="url(#b)"/><path d="M295,151.45a20,20,0,0,0-15.86,8L204,285.63a19.85,19.85,0,0,0,0,23.88l75,126.12a19.75,19.75,0,0,0,13.84,7.79h-67.4a19.83,19.83,0,0,1-15.85-7.9l-75-126.12a19.87,19.87,0,0,1,0-23.88l75.05-126.17a19.86,19.86,0,0,1,15.85-7.9Z" fill="url(#c)"/><path d="M487.84,309.4l-75,126.12a19.83,19.83,0,0,1-15.85,7.9h-67.4a19.75,19.75,0,0,0,13.84-7.79L362.24,404l56.2-94.44a19.83,19.83,0,0,0,0-23.88l-56.2-94.48-18.85-31.69a19.83,19.83,0,0,0-15.84-7.9l34.69-.05,10.48,0,24.23,0a19.86,19.86,0,0,1,15.85,7.9L421,173.11l66.86,112.41A19.85,19.85,0,0,1,487.84,309.4Z" fill="url(#d)"/><path d="M423.56,177.47c-1.36-2.16-10.49-8.78-20.87-8.9l-28.34.42,4.82-9.59c3.74-5,11.55-8,17.78-8a19.86,19.86,0,0,1,15.85,7.9Z" fill="url(#e)"/><path d="M397,151.45a20,20,0,0,0-15.86,8L306,285.63a19.85,19.85,0,0,0,0,23.88l75,126.12a19.75,19.75,0,0,0,13.84,7.79h-67.4a19.83,19.83,0,0,1-15.85-7.9l-75-126.12a19.87,19.87,0,0,1,0-23.88l75.05-126.17a19.86,19.86,0,0,1,15.85-7.9Z" fill="url(#f)"/><path d="M605.08,319.09l44.16,54h-32l-38.83-48.43v48.43H550.88V223.72h27.53v89.61l36.69-46.94H648Z" fill="#ededed"/><path d="M690.42,266.39v18.35a28.4,28.4,0,0,1,12.38-15.25,38.26,38.26,0,0,1,20.05-5.23V295a31.33,31.33,0,0,0-22.61,5.12q-9.82,6.61-9.82,22v51H662.9V266.39Z" fill="#ededed"/><path d="M825.7,359.85q-16.23,16.22-40.12,16.21t-40.11-16.21q-16.22-16.22-16.22-40.12,0-23.69,16.22-39.9,16.42-16.43,40.11-16.43t40.12,16.43q16.42,16.44,16.42,39.9Q842.12,343.42,825.7,359.85Zm-60.81-19a29.9,29.9,0,0,0,41.39,0q8.33-8.33,8.32-21.13t-8.32-21.12a29.9,29.9,0,0,0-41.39,0q-8.11,8.53-8.11,21.12T764.89,340.86Z" fill="#ededed"/><path d="M965.24,331H884.8q5.33,20.06,30.08,20.06,15.79,0,23.9-10.67L961,353.23q-15.79,22.83-46.51,22.83-26.46,0-42.47-16t-16-40.33q0-23.89,15.79-40.11,15.57-16.22,40.54-16.22,23.68,0,38.62,16.22,15.36,16.22,15.36,40.11A75.86,75.86,0,0,1,965.24,331Zm-80.87-21.33h54.41q-2.35-10.45-9.5-16a26.89,26.89,0,0,0-17-5.55q-11.1,0-18.35,5.66T884.37,309.71Z" fill="#ededed"/><path d="M1006.63,296.69q0,6.82,19.42,11.74a95.23,95.23,0,0,1,12.37,3.51,54.53,54.53,0,0,1,11.2,5.77,25.9,25.9,0,0,1,8.86,9.92,30.74,30.74,0,0,1,3.2,14.29q0,16.44-12.37,25.39-12.39,8.76-30.52,8.75-32.85,0-44.8-25.39l23.89-13.44q4.9,13.88,20.91,13.87,14.73,0,14.73-9.18,0-6.82-19.42-11.73-7.26-1.92-12.38-3.84a63,63,0,0,1-11.09-5.66,24.82,24.82,0,0,1-9.07-9.6,29.13,29.13,0,0,1-3.09-13.76q0-15.79,11.52-24.75,11.73-9.18,29-9.18a48.34,48.34,0,0,1,23.68,5.87A43,43,0,0,1,1059.55,286l-23.47,12.8Q1031,287.95,1019,287.94a15.11,15.11,0,0,0-8.86,2.46A7.4,7.4,0,0,0,1006.63,296.69Z" fill="#ededed"/><path d="M1128.68,376.06q-24.12,0-40.33-16.21-16-16.22-16-40.12t16-40.11q16.22-16.22,40.33-16.22a55.31,55.31,0,0,1,28.38,7.47,49.7,49.7,0,0,1,19.41,20.06l-23.68,13.87a24.13,24.13,0,0,0-9.71-10.46,28.21,28.21,0,0,0-14.61-3.84q-12.39,0-20.49,8.22t-8.1,21a29.22,29.22,0,0,0,8.1,20.91q8.12,8.12,20.49,8.11a29.24,29.24,0,0,0,14.82-3.73,23.5,23.5,0,0,0,9.71-10.35l23.9,13.65a52,52,0,0,1-20,20.27A55.46,55.46,0,0,1,1128.68,376.06Z" fill="#ededed"/><path d="M1280.6,359.85q-16.23,16.22-40.12,16.21t-40.11-16.21q-16.21-16.22-16.22-40.12,0-23.69,16.22-39.9,16.43-16.43,40.11-16.43t40.12,16.43q16.43,16.44,16.43,39.9Q1297,343.42,1280.6,359.85Zm-60.81-19a29.9,29.9,0,0,0,41.39,0q8.33-8.33,8.32-21.13t-8.32-21.12a29.9,29.9,0,0,0-41.39,0q-8.11,8.53-8.11,21.12T1219.79,340.86Z" fill="#ededed"/><path d="M1375.76,263.4q17.7,0,28.8,11.74,11.52,12,11.52,32.43v65.5h-27.52V311q0-10.46-5.65-16.22T1367.44,289q-10.89,0-17.18,6.72T1344,315.47v57.6h-27.53V266.39H1344v11.95Q1353.78,263.41,1375.76,263.4Z" fill="#ededed"/><path d="M1549.22,266.39v18.35a28.4,28.4,0,0,1,12.38-15.25,38.26,38.26,0,0,1,20.05-5.23V295A31.33,31.33,0,0,0,1559,300.1q-9.82,6.61-9.82,22v51H1521.7V266.39Z" fill="#ededed"/><path d="M1684.49,359.85q-16.21,16.22-40.11,16.21t-40.11-16.21q-16.21-16.22-16.22-40.12,0-23.69,16.22-39.9,16.43-16.43,40.11-16.43t40.11,16.43q16.44,16.44,16.43,39.9Q1700.92,343.42,1684.49,359.85Zm-60.81-19a29.91,29.91,0,0,0,41.4,0q8.33-8.33,8.32-21.13t-8.32-21.12a29.91,29.91,0,0,0-41.4,0q-8.1,8.53-8.1,21.12T1623.68,340.86Z" fill="#ededed"/><path d="M1747.86,373.07h-27.52V217.32h27.52Z" fill="#ededed"/><path d="M1476.53,292.91v44.38q0,5.55,2.78,8.11c1.84,1.71,4.55,2.67,8.1,2.88a119.07,119.07,0,0,0,13.23-.11v25q-27.95,3.19-39.79-5.23T1449,337.29V292.91h-18.56V266.45H1449V244.9a19.93,19.93,0,0,1,27.51-8.32h0v29.87h24.11v26.46Z" fill="#ededed"/></svg>