<svg xmlns="http://www.w3.org/2000/svg" xmlns:xlink="http://www.w3.org/1999/xlink" width="136.32mm" height="110.63mm" viewBox="0 0 386.41 313.59"><defs><linearGradient id="a" x1="141.57" y1="130.57" x2="187.31" y2="216.59" gradientUnits="userSpaceOnUse"><stop offset="0" stop-color="#fff"/><stop offset="0.13" stop-color="#e5e5e5"/><stop offset="0.55" stop-color="#999998"/><stop offset="0.85" stop-color="#696968"/><stop offset="1" stop-color="#575756"/></linearGradient><linearGradient id="b" x1="181.45" y1="11.14" x2="181.45" y2="37.17" gradientUnits="userSpaceOnUse"><stop offset="0.13" stop-color="#2e2d2c" stop-opacity="0.9"/><stop offset="0.26" stop-color="#424140" stop-opacity="0.82"/><stop offset="0.39" stop-color="#7d7d7c" stop-opacity="0.56"/><stop offset="0.52" stop-color="#e0e0e0" stop-opacity="0.13"/><stop offset="0.55" stop-color="#fff" stop-opacity="0"/></linearGradient><linearGradient id="c" x1="112.68" y1="196.82" x2="165.59" y2="97.31" gradientUnits="userSpaceOnUse"><stop offset="0" stop-color="#fff"/><stop offset="0.03" stop-color="#fafafa"/><stop offset="0.5" stop-color="#aeaead"/><stop offset="0.83" stop-color="#7e7e7d"/><stop offset="1" stop-color="#6c6c6b"/></linearGradient><linearGradient id="d" x1="243.57" y1="130.57" x2="289.31" y2="216.59" xlink:href="#a"/><linearGradient id="e" x1="283.45" y1="11.14" x2="283.45" y2="37.17" gradientUnits="userSpaceOnUse"><stop offset="0.13" stop-color="#2e2d2c" stop-opacity="0.9"/><stop offset="0.26" stop-color="#434241" stop-opacity="0.81"/><stop offset="0.39" stop-color="#828181" stop-opacity="0.54"/><stop offset="0.53" stop-color="#eaeaea" stop-opacity="0.09"/><stop offset="0.55" stop-color="#fff" stop-opacity="0"/></linearGradient><linearGradient id="f" x1="214.68" y1="196.82" x2="267.59" y2="97.31" xlink:href="#a"/></defs><path d="M270.34,169.09l-75,126.12a19.83,19.83,0,0,1-15.85,7.9h-67.4a19.75,19.75,0,0,0,13.84-7.79l18.85-31.68,56.2-94.44a19.83,19.83,0,0,0,0-23.88l-56.2-94.48L125.89,19.15a19.83,19.83,0,0,0-15.84-7.9l34.69-.05,10.48,0,24.23,0A19.86,19.86,0,0,1,195.3,19l8.19,13.76,66.86,112.41A19.85,19.85,0,0,1,270.34,169.09Z" fill="url(#a)"/><path d="M206.05,37.17c-1.36-2.16-10.48-8.78-20.86-8.9l-28.35.42,4.74-9.54c3.74-5,11.63-8,17.86-8A19.86,19.86,0,0,1,195.29,19Z" fill="url(#b)"/><path d="M179.45,11.14a20,20,0,0,0-15.86,8l-75,126.17a19.85,19.85,0,0,0,0,23.88l75.05,126.12a19.75,19.75,0,0,0,13.84,7.79H110a19.83,19.83,0,0,1-15.85-7.9l-75-126.12a19.87,19.87,0,0,1,0-23.88L94.18,19A19.86,19.86,0,0,1,110,11.14Z" fill="url(#c)"/><path d="M372.34,169.09l-75,126.12a19.83,19.83,0,0,1-15.85,7.9h-67.4a19.75,19.75,0,0,0,13.84-7.79l18.85-31.68,56.2-94.44a19.83,19.83,0,0,0,0-23.88l-56.2-94.48L227.89,19.15a19.83,19.83,0,0,0-15.84-7.9l34.69-.05,10.48,0,24.23,0A19.86,19.86,0,0,1,297.3,19l8.19,13.76,66.86,112.41A19.85,19.85,0,0,1,372.34,169.09Z" fill="url(#d)"/><path d="M308.05,37.17c-1.36-2.16-10.48-8.78-20.86-8.9l-28.35.42,4.82-9.6c3.74-5,11.55-7.95,17.78-7.95A19.86,19.86,0,0,1,297.29,19Z" fill="url(#e)"/><path d="M281.45,11.14a20,20,0,0,0-15.86,8l-75,126.17a19.85,19.85,0,0,0,0,23.88l75,126.12a19.75,19.75,0,0,0,13.84,7.79H212a19.83,19.83,0,0,1-15.85-7.9l-75-126.12a19.87,19.87,0,0,1,0-23.88L196.18,19A19.86,19.86,0,0,1,212,11.14Z" fill="url(#f)"/></svg>